# xmcd CD database file
# Copyright (C) 1993-1998 Ti Kan
#
# Track frame offsets:
#  150
#  18171
#  37413
#  57633
#  75994
#  94679
#  111544
#  132519
#  150270
#  174998
#  196373
#
# Disc length: 2884 seconds
#
# Revision: 1
# Processed by: cddbd v1.4b41PL1 Copyright (c) Steve Scherf et al.
# Submitted via: CDWizzard Release:4.35
#
DISCID=8d0b420b
DTITLE=Eva Cassidy - Eva By Heart
DYEAR=1900
DGENRE=
TTITLE0=I Know You By Heart
TTITLE1=Love Heals The Wound It Makes
TTITLE2=Wayfaring Stranger
TTITLE3=Wade In The Water
TTITLE4=Blues In The Night
TTITLE5=Songbird
TTITLE6=Need Your Love So Bad
TTITLE7=Say Goodbye
TTITLE8=Nightbird
TTITLE9=Waly Waly
TTITLE10=How Can I Keep From Singing?
EXTD=
EXTT0=
EXTT1=
EXTT2=
EXTT3=
EXTT4=
EXTT5=
EXTT6=Eva Cassidy and Chuck Brown
EXTT7=
EXTT8=
EXTT9=
EXTT10=
PLAYORDER=
